<?xml version="1.0" encoding="iso-8859-1"?>
<!-- Generator: Adobe Illustrator 16.0.0, SVG Export Plug-In . SVG Version: 6.00 Build 0)  -->
<!DOCTYPE svg PUBLIC "-//W3C//DTD SVG 1.1//EN" "http://www.w3.org/Graphics/SVG/1.1/DTD/svg11.dtd">
<svg version="1.1" id="Capa_1" xmlns="http://www.w3.org/2000/svg" xmlns:xlink="http://www.w3.org/1999/xlink" x="0px" y="0px"
	 width="46.241px" height="46.242px" viewBox="0 0 46.241 46.242" style="enable-background:new 0 0 46.241 46.242;"
	 xml:space="preserve">
<g>
	<g>
		<path d="M15.996,32.048c-0.862,0-1.664,0.256-2.339,0.691c-0.753-1.846-2.562-3.148-4.678-3.148c-2.347,0-4.312,1.603-4.879,3.771
			c-0.117-0.011-0.231-0.019-0.349-0.019C1.679,33.343,0,35.023,0,37.095c0,2.069,1.679,3.75,3.751,3.75
			c1.283,0,10.49-0.013,12.102-0.013c2.387,0,4.465-2.077,4.465-4.462C20.319,33.982,18.383,32.048,15.996,32.048z"/>
		<path d="M3.403,17.453c0.177,1.322,1.305,2.302,2.637,2.302h6.738c1.334,0,2.46-0.979,2.637-2.301l0.027-0.201
			c0.066-0.512,0.07-1.07,0-1.607c-0.445-3.333-3.506-5.671-6.837-5.227c-3.331,0.443-5.673,3.502-5.228,6.834L3.403,17.453z"/>
		<circle cx="9.408" cy="5.202" r="4.302"/>
		<path d="M37.799,26.017v-2.569c0-1.067-0.85-1.932-1.916-1.932c-1.067,0-1.918,0.865-1.918,1.932v2.569
			c0,1.067,0.851,1.933,1.918,1.933C36.949,27.95,37.799,27.084,37.799,26.017z"/>
		<path d="M7.443,23.448v2.569c0,1.067,0.851,1.933,1.917,1.933s1.918-0.865,1.918-1.933v-2.569c0-1.067-0.852-1.932-1.918-1.932
			S7.443,22.38,7.443,23.448z"/>
		<path d="M23.412,11.579c0-1.066-0.865-1.916-1.932-1.916h-2.57c-1.067,0-1.932,0.85-1.932,1.916c0,1.067,0.864,1.917,1.932,1.917
			h2.57C22.547,13.496,23.412,12.646,23.412,11.579z"/>
		<path d="M26.112,31.257h-2.569c-1.067,0-1.933,0.85-1.933,1.916c0,1.067,0.865,1.918,1.933,1.918h2.569
			c1.067,0,1.933-0.851,1.933-1.918C28.045,32.107,27.18,31.257,26.112,31.257z"/>
		<path d="M38.83,28.91h-5.974c-1.548,0-2.804,1.255-2.804,2.804v10.823c0,1.548,1.256,2.805,2.804,2.805h5.974
			c1.549,0,2.803-1.256,2.803-2.805V31.712C41.633,30.165,40.379,28.91,38.83,28.91z M35.895,43.338
			c-0.694,0-1.258-0.562-1.258-1.256c0-0.694,0.563-1.257,1.258-1.257c0.693,0,1.257,0.562,1.257,1.257
			C37.151,42.776,36.588,43.338,35.895,43.338z"/>
		<path d="M42.708,1.702H28.977c-1.943,0-3.531,1.566-3.531,3.509v8.9c0,1.944,1.588,3.545,3.531,3.545h1.172
			c0.023,1.398,1.148,2.486,2.527,2.486h6.334c1.379,0,2.504-1.088,2.526-2.486h1.172c1.943,0,3.533-1.602,3.533-3.545v-8.9
			C46.241,3.267,44.652,1.702,42.708,1.702z M43.678,14.11c0,0.531-0.438,0.93-0.97,0.93H28.977c-0.531,0-0.967-0.399-0.967-0.93
			v-8.9c0-0.529,0.436-0.945,0.967-0.945h13.731c0.531,0,0.97,0.416,0.97,0.945V14.11z"/>
	</g>
</g>
<g>
</g>
<g>
</g>
<g>
</g>
<g>
</g>
<g>
</g>
<g>
</g>
<g>
</g>
<g>
</g>
<g>
</g>
<g>
</g>
<g>
</g>
<g>
</g>
<g>
</g>
<g>
</g>
<g>
</g>
</svg>
